<?xml version="1.0" encoding="UTF-8"?>
<svg version="1.1" xmlns="http://www.w3.org/2000/svg" width="1024" height="1024">
<path d="M0 0 C337.92 0 675.84 0 1024 0 C1024 337.92 1024 675.84 1024 1024 C686.08 1024 348.16 1024 0 1024 C0 686.08 0 348.16 0 0 Z " fill="#FEFEFE" transform="translate(0,0)"/>
<path d="M0 0 C5.91567243 2.68010511 10.87983692 7.06074014 16 11 C16.56074219 11.43022461 17.12148438 11.86044922 17.69921875 12.30371094 C30.03193446 21.79312892 41.80806698 31.86030946 53.21875 42.4375 C55.70007807 44.72366743 58.21730816 46.95873118 60.75 49.1875 C65.37194985 53.33751656 69.78797808 57.67962001 74.1875 62.0625 C74.85297852 62.72338623 75.51845703 63.38427246 76.20410156 64.06518555 C80.09313334 67.96630407 83.79152829 71.97892727 87.38989258 76.14916992 C89.61139788 78.70280627 91.93265834 81.15838173 94.25 83.625 C99.6947424 89.50851629 104.62691922 95.71663437 109.50488281 102.07226562 C111.06304386 104.08128582 112.64924552 106.06534174 114.2421875 108.046875 C160.22428995 165.5657293 193.17666557 236.13520243 185.22607422 311.15698242 C178.75710098 362.39143044 154.7127546 409.44105069 125 451 C124.49114258 451.71462402 123.98228516 452.42924805 123.45800781 453.16552734 C112.24424162 468.88865909 100.73614282 484.31224183 88.46044922 499.22363281 C86.42177578 501.70330314 84.40009769 504.19673813 82.375 506.6875 C74.41250741 516.40493176 66.22250676 525.93297591 58.03515625 535.4609375 C56.01428894 537.81374412 54.00188441 540.17339211 51.99609375 542.5390625 C46.04314902 549.54748701 39.9421515 556.38001839 33.67578125 563.109375 C30.98302481 566.01833816 28.36625812 568.9790089 25.7734375 571.9765625 C23.54861908 574.51501171 21.27496681 577.00641776 19 579.5 C15.54424587 583.28934126 12.1347711 587.11083698 8.76953125 590.98046875 C4.46130252 595.89736556 0.05313844 600.72639032 -4.328125 605.578125 C-8.32016843 610.00467656 -12.28355397 614.45159777 -16.1953125 618.94921875 C-18.22958141 621.26088797 -20.3022231 623.5353143 -22.375 625.8125 C-25.48528851 629.25378205 -28.46478312 632.76321298 -31.375 636.375 C-35.05507009 640.92700307 -38.92522884 645.23252248 -42.90917969 649.51464844 C-46.73615031 653.65227588 -50.29483278 657.97172479 -53.828125 662.36328125 C-55.93756349 664.92420028 -58.12887648 667.37123455 -60.375 669.8125 C-64.41520643 674.24550428 -68.10633036 678.88241525 -71.77514648 683.62084961 C-74.89341343 687.63421971 -78.11882669 691.52645949 -81.4375 695.375 C-86.54169002 701.32352629 -91.23625516 707.53415314 -95.8984375 713.83203125 C-98.50988333 717.35789763 -101.17509878 720.83875088 -103.8581543 724.31030273 C-135.67702833 765.53526176 -175.48765903 817.34596379 -179 871 C-179.66 871 -180.32 871 -181 871 C-190.8789084 852.1014103 -199.60332501 833.01312352 -207 813 C-207.69029297 811.15100098 -207.69029297 811.15100098 -208.39453125 809.26464844 C-220.44759443 776.67436611 -228.36541613 742.61468821 -237 709 C-237.17304657 708.32664612 -237.34609314 707.65329224 -237.52438354 706.95953369 C-242.60988692 687.16839692 -247.68417511 667.37294899 -252.60702515 647.5406189 C-273.51514202 563.38941016 -301.72969237 480.62607471 -336 401 C-336.3970816 400.0762558 -336.3970816 400.0762558 -336.80218506 399.1338501 C-344.17301219 382.01125917 -352.10038217 365.17365635 -360.3125 348.44238281 C-361.90550973 345.1927536 -363.48480255 341.93676992 -365.0625 338.6796875 C-372.04295179 324.37610719 -379.78672797 310.62919728 -388 297 C-388.45084961 296.24251465 -388.90169922 295.4850293 -389.36621094 294.70458984 C-399.33762046 277.97270478 -411.03948367 262.52142122 -424 248 C-424.89605971 246.98066771 -425.7918983 245.96114098 -426.6875 244.94140625 C-431.50058097 239.53402717 -436.39890205 234.57933879 -442 230 C-443.06640625 229.09765625 -444.1328125 228.1953125 -445.19921875 227.29296875 C-464.89275131 210.85529758 -487.41482122 199.21154525 -512 192 C-512.8357959 191.75032471 -513.6715918 191.50064941 -514.53271484 191.2434082 C-521.49968742 189.2414551 -528.45469036 187.96777442 -535.625 186.9375 C-536.77911377 186.76831055 -537.93322754 186.59912109 -539.12231445 186.42480469 C-551.03825313 184.74369774 -562.99481473 183.77260316 -575 183 C-537.69241267 152.98315597 -492.70771819 132.19164388 -446.125 121.625 C-445.12992432 121.3983667 -444.13484863 121.1717334 -443.10961914 120.93823242 C-424.37542883 116.93676949 -405.87625736 115.44331588 -386.75 115.5625 C-385.14208084 115.56805908 -385.14208084 115.56805908 -383.50167847 115.57373047 C-316.18623353 115.90449735 -261.76768695 146.04481305 -214.95874023 192.85375977 C-210.74240629 197.13635292 -206.85120636 201.5970015 -203.125 206.31640625 C-200.89969996 209.12666568 -198.58088871 211.83939444 -196.25 214.5625 C-177.24474367 237.40394829 -161.86571725 263.29005411 -146.5703125 288.6875 C-130.14638403 315.93227675 -112.68559599 342.02222896 -90.5 364.9375 C-89.91234863 365.55963379 -89.32469727 366.18176758 -88.71923828 366.82275391 C-86.88231639 368.73788235 -86.88231639 368.73788235 -84 371 C-80.83614674 370.71561764 -79.19167864 369.56463049 -76.99487305 367.35131836 C-76.15831429 366.51926125 -76.15831429 366.51926125 -75.30485535 365.6703949 C-74.71312027 365.06631302 -74.12138519 364.46223114 -73.51171875 363.83984375 C-72.89029495 363.21654678 -72.26887115 362.59324982 -71.62861633 361.95106506 C-70.31310086 360.62882752 -69.00118808 359.30299728 -67.69262695 357.97387695 C-65.71216175 355.96254611 -63.72150323 353.96180606 -61.72851562 351.96289062 C-53.29155844 343.48351992 -53.29155844 343.48351992 -45.34448242 334.54833984 C-43.85388732 332.83173296 -42.2637524 331.26236967 -40.625 329.6875 C-36.92953436 326.05817245 -33.72716588 322.08801482 -30.50390625 318.0390625 C-28.4468476 315.54235169 -26.33866917 313.14199002 -24.171875 310.7421875 C-20.09050908 306.1724652 -16.34711474 301.41130624 -12.6875 296.5 C-11.71756104 295.2001416 -11.71756104 295.2001416 -10.72802734 293.87402344 C28.48398945 240.82190079 44.58432935 180.40162172 35.54785156 114.64013672 C29.68924355 75.71328937 17.65087166 38.93204622 1.05053711 3.36303711 C0 1 0 1 0 0 Z " fill="#1076E4" transform="translate(714,77)"/>
<path d="M0 0 C1.60791916 0.00555908 1.60791916 0.00555908 3.24832153 0.01123047 C70.56376647 0.34199735 124.98231305 30.48231305 171.79125977 77.29125977 C176.00759371 81.57385292 179.89879364 86.0345015 183.625 90.75390625 C185.85030004 93.56416568 188.16911129 96.27689444 190.5 99 C209.50525633 121.84144829 224.88428275 147.72755411 240.1796875 173.125 C258.2813981 203.15295981 277.60231382 230.91331017 302.75 255.4375 C303.41 256.0975 304.07 256.7575 304.75 257.4375 C303.98558594 258.14132812 303.22117187 258.84515625 302.43359375 259.5703125 C301.35145467 260.56759134 300.26943342 261.56499805 299.1875 262.5625 C298.6097583 263.09512451 298.0320166 263.62774902 297.43676758 264.17651367 C293.56891872 267.74671644 289.71833449 271.33469818 285.87695312 274.93334961 C280.95045474 279.54791085 276.02105052 284.13329245 270.90234375 288.53515625 C267.20749993 291.80083491 263.61996919 295.1838586 260.02319336 298.55688477 C256.99893968 301.38432673 253.9417221 304.15939263 250.81640625 306.875 C246.68470473 310.47020739 242.67612736 314.1848632 238.6875 317.9375 C238.01912109 318.56269531 237.35074219 319.18789063 236.66210938 319.83203125 C233.38804618 322.9056416 230.15877386 326.01088392 226.99609375 329.19921875 C224.70695436 331.50487803 222.38385838 333.68158565 219.875 335.75 C215.8549324 339.21021293 212.40180558 343.05713554 208.90234375 347.03515625 C207.07974466 349.06945469 205.21579375 350.98184528 203.25 352.875 C199.49942511 356.5562802 196.27223168 360.61766627 192.984375 364.7109375 C191.07798749 367.03726352 189.11205382 369.23904697 187.0625 371.4375 C150.52694632 412.25853612 132.03252567 460.16753252 130.75 514.4375 C128.95958957 511.75188436 128.22990011 510.09988963 127.38061523 507.07495117 C127.12916245 506.18982346 126.87770966 505.30469574 126.61863708 504.39274597 C126.35132278 503.43169449 126.08400848 502.47064301 125.80859375 501.48046875 C125.38363365 499.9779229 125.38363365 499.9779229 124.9500885 498.44502258 C124.34184371 496.29322227 123.73583784 494.14078809 123.13183594 491.98779297 C121.54757759 486.3462277 119.94202705 480.71071399 118.33984375 475.07421875 C117.86706497 473.40847305 117.86706497 473.40847305 117.38473511 471.70907593 C109.69973142 444.63406129 101.0380731 418.00155324 91.75 391.4375 C91.46533875 390.62112061 91.18067749 389.80474121 90.88739014 388.96362305 C77.61306925 350.90219526 63.20539313 313.24343858 46.75 276.4375 C45.95758263 274.64225826 45.16586631 272.84670683 44.375 271.05078125 C38.46791577 257.7035559 32.14205448 244.55792936 25.75 231.4375 C25.22889648 230.36129395 24.70779297 229.28508789 24.17089844 228.17626953 C16.39523384 212.15303463 7.95620716 196.68234041 -1.25 181.4375 C-1.92409912 180.30562256 -1.92409912 180.30562256 -2.61181641 179.15087891 C-12.58447809 162.41563976 -24.28709254 146.96160031 -37.25 132.4375 C-38.14605971 131.41816771 -39.0418983 130.39864098 -39.9375 129.37890625 C-44.75058097 123.97152717 -49.64890205 119.01683879 -55.25 114.4375 C-56.31640625 113.53515625 -57.3828125 112.6328125 -58.44921875 111.73046875 C-78.14275131 95.29279758 -100.66482122 83.64904525 -125.25 76.4375 C-126.0857959 76.18782471 -126.9215918 75.93814941 -127.78271484 75.6809082 C-134.74968742 73.6789551 -141.70469036 72.40527442 -148.875 71.375 C-150.02911377 71.20581055 -151.18322754 71.03662109 -152.37231445 70.86230469 C-164.28825313 69.18119774 -176.24481473 68.21010316 -188.25 67.4375 C-150.94241267 37.42065597 -105.95771819 16.62914388 -59.375 6.0625 C-58.37992432 5.8358667 -57.38484863 5.6092334 -56.35961914 5.37573242 C-37.62542883 1.37426949 -19.12625736 -0.11918412 0 0 Z " fill="#41BEFE" transform="translate(327.25,192.5625)"/>
<path d="M0 0 C0.66 0.33 1.32 0.66 2 1 C-7.9 10.9 -17.8 20.8 -28 31 C-28.66 30.67 -29.32 30.34 -30 30 C-27.67334019 27.47293844 -25.33744884 24.954582 -23 22.4375 C-22.35160156 21.73302734 -21.70320312 21.02855469 -21.03515625 20.30273438 C-17.13383175 16.11170756 -13.10501171 12.23301087 -8.75390625 8.51147461 C-6.74425661 6.77960644 -4.85616951 4.95733971 -3 3.0625 C-2.4225 2.47597656 -1.845 1.88945313 -1.25 1.28515625 C-0.8375 0.86105469 -0.425 0.43695313 0 0 Z " fill="#0B6DE1" transform="translate(564,511)"/>
<path d="M0 0 C0.33 0.99 0.66 1.98 1 3 C11.395 3.99 11.395 3.99 22 5 C22 5.33 22 5.66 22 6 C12.60644064 6.14256667 3.35927791 5.72492332 -6 5 C-5.195625 4.360625 -4.39125 3.72125 -3.5625 3.0625 C-1.7249496 1.59396498 -1.7249496 1.59396498 0 0 Z " fill="#24B4FD" transform="translate(145,255)"/>
<path d="M0 0 C3.75354842 1.67228307 6.92635242 4.03742052 10.1875 6.5 C10.73341797 6.90347656 11.27933594 7.30695313 11.84179688 7.72265625 C15.87604632 10.75209263 15.87604632 10.75209263 17 13 C14.13132769 11.61735163 11.43975968 10.07851447 8.75 8.375 C8.04359375 7.92898437 7.3371875 7.48296875 6.609375 7.0234375 C6.07828125 6.68570313 5.5471875 6.34796875 5 6 C5.33 7.98 5.66 9.96 6 12 C3.71540242 9.71540242 3.02870252 7.87462656 1.875 4.875 C1.52179687 3.96492188 1.16859375 3.05484375 0.8046875 2.1171875 C0.53914062 1.41851562 0.27359375 0.71984375 0 0 Z " fill="#1467E2" transform="translate(714,77)"/>
<path d="M0 0 C0.99 0.33 1.98 0.66 3 1 C2.67 2.65 2.34 4.3 2 6 C2.99 5.67 3.98 5.34 5 5 C5 9.29 5 13.58 5 18 C3.03723564 15.05585347 2.28266038 12.94101364 1.375 9.5625 C0.98441406 8.14130859 0.98441406 8.14130859 0.5859375 6.69140625 C0 4 0 4 0 0 Z " fill="#31BEFD" transform="translate(453,689)"/>
<path d="M0 0 C0.75 1.6875 0.75 1.6875 1 4 C-0.80447147 6.61337248 -2.7582981 8.7582981 -5 11 C-5.66 11 -6.32 11 -7 11 C-5.5140084 6.40693504 -3.14985318 3.56430755 0 0 Z " fill="#0F69E1" transform="translate(700,375)"/>
<path d="M0 0 C0.33 0.99 0.66 1.98 1 3 C1.99 3.33 2.98 3.66 4 4 C3.67 5.98 3.34 7.96 3 10 C-0.00617269 6.99382731 0.40414684 4.17618402 0 0 Z " fill="#0A63E0" transform="translate(487,820)"/>
</svg>
